<?xml version="1.0" standalone="no"?><!DOCTYPE svg PUBLIC "-//W3C//DTD SVG 1.1//EN" "http://www.w3.org/Graphics/SVG/1.1/DTD/svg11.dtd"><svg height="1024" node-id="1" sillyvg="true" template-height="1024" template-width="1024" version="1.1" viewBox="0 0 1024 1024" width="1024" xmlns="http://www.w3.org/2000/svg" xmlns:xlink="http://www.w3.org/1999/xlink"><defs node-id="156"><clipPath id="master_svg0_4_847" node-id="3"><path d="M 0.00 0.00 L 1024.00 0.00 L 1024.00 1024.00 L 0.00 1024.00 Z" fill="#000000" fill-rule="nonzero" node-id="159" stroke="none" target-height="1024" target-width="1024" target-x="0" target-y="0"></path></clipPath></defs><g node-id="536"><g clip-path="url(#master_svg0_4_847)" group-id="1" id="sillyvg_g_1" node-id="165"><path d="M 431.60 253.70 L 415.50 253.70 C 415.51 237.58 411.27 221.75 403.20 207.80 L 417.10 199.70 C 426.59 216.12 431.59 234.74 431.60 253.70 Z" fill="#111111" fill-rule="nonzero" group-id="1,2" node-id="169" stroke="none" target-height="53.999985" target-width="28.400024" target-x="403.2" target-y="199.69998"></path><path d="M 417.10 199.80 L 403.20 207.90 C 395.12 193.97 383.53 182.38 369.60 174.30 L 377.60 160.40 C 394.01 169.82 407.63 183.42 417.10 199.80 Z" fill="#ffffff" fill-rule="nonzero" group-id="1,3" node-id="174" stroke="none" target-height="47.499985" target-width="47.50003" target-x="369.6" target-y="160.40002"></path><path d="M 415.50 253.70 L 346.80 253.70 C 346.79 247.60 344.39 241.74 340.10 237.40 L 348.80 192.30 C 348.99 191.40 348.59 190.47 347.80 190.00 C 346.78 189.41 345.47 189.77 344.90 190.80 L 322.10 230.70 C 310.09 231.64 300.82 241.65 300.80 253.70 L 232.10 253.70 C 232.09 237.58 236.33 221.75 244.40 207.80 C 252.48 193.87 264.07 182.28 278.00 174.20 C 306.40 157.80 341.40 157.80 369.80 174.20 C 383.73 182.28 395.32 193.87 403.40 207.80 C 411.30 221.81 415.47 237.62 415.50 253.70 Z" fill="#3541df" fill-rule="nonzero" group-id="1,4" node-id="179" stroke="none" target-height="95.90054" target-width="183.4114" target-x="232.08856" target-y="157.79945"></path><path d="M 408.20 114.00 C 408.20 135.29 392.95 153.53 372.00 157.30 C 341.06 141.86 304.61 142.12 273.90 158.00 L 119.70 158.00 L 119.70 70.00 L 364.30 70.00 C 388.56 70.06 408.20 89.74 408.20 114.00 Z" fill="#ffffff" fill-rule="nonzero" group-id="1,5" node-id="184" stroke="none" target-height="88" target-width="288.50006" target-x="119.7" target-y="70"></path><path d="M 377.60 160.30 L 369.60 174.20 C 355.65 166.13 339.82 161.89 323.70 161.90 L 323.70 145.80 C 340.50 145.78 357.08 149.68 372.10 157.20 C 373.90 158.20 375.80 159.30 377.60 160.30 Z" fill="#111111" fill-rule="nonzero" group-id="1,6" node-id="189" stroke="none" target-height="28.423264" target-width="53.899994" target-x="323.7" target-y="145.77673"></path><path d="M 347.70 190.00 C 348.49 190.47 348.89 191.40 348.70 192.30 L 340.00 237.40 C 335.66 233.04 329.75 230.59 323.60 230.60 C 323.00 230.58 322.40 230.62 321.80 230.70 L 344.60 190.80 C 345.32 189.84 346.61 189.50 347.70 190.00 Z" fill="#ffffff" fill-rule="nonzero" group-id="1,7" node-id="194" stroke="none" target-height="47.896072" target-width="27.094696" target-x="321.80005" target-y="189.50389"></path><path d="M 340.00 237.40 C 344.33 241.72 346.74 247.59 346.70 253.70 C 346.72 266.23 336.74 276.49 324.22 276.82 C 311.70 277.16 301.19 267.45 300.53 254.94 C 299.88 242.43 309.31 231.68 321.80 230.70 C 322.40 230.70 323.00 230.60 323.60 230.60 C 329.75 230.62 335.64 233.06 340.00 237.40 Z" fill="#ffffff" fill-rule="nonzero" group-id="1,8" node-id="199" stroke="none" target-height="46.557938" target-width="46.865387" target-x="299.8752" target-y="230.59996"></path><path d="M 323.70 145.90 L 323.70 162.00 C 307.58 161.99 291.75 166.23 277.80 174.30 L 269.80 160.40 C 271.20 159.60 272.60 158.80 274.00 158.10 C 289.32 150.04 306.39 145.86 323.70 145.90 Z" fill="#ffffff" fill-rule="nonzero" group-id="1,9" node-id="204" stroke="none" target-height="28.444199" target-width="53.899994" target-x="269.80002" target-y="145.85587"></path><path d="M 269.70 160.30 L 277.70 174.20 C 263.77 182.28 252.18 193.87 244.10 207.80 L 230.20 199.70 C 239.75 183.38 253.36 169.81 269.70 160.30 Z" fill="#111111" fill-rule="nonzero" group-id="1,10" node-id="209" stroke="none" target-height="47.500015" target-width="47.5" target-x="230.20001" target-y="160.3"></path><path d="M 230.20 199.80 L 244.10 207.90 C 236.03 221.85 231.79 237.68 231.80 253.80 L 215.70 253.80 C 215.73 234.84 220.73 216.22 230.20 199.80 Z" fill="#ffffff" fill-rule="nonzero" group-id="1,11" node-id="214" stroke="none" target-height="54.000015" target-width="28.40001" target-x="215.69998" target-y="199.79999"></path><path d="M 76.00 120.60 C 78.75 123.38 82.50 124.93 86.40 124.90 C 94.52 124.90 101.10 118.32 101.10 110.20 C 101.10 102.08 94.52 95.50 86.40 95.50 C 78.28 95.50 71.70 102.08 71.70 110.20 C 71.74 114.09 73.28 117.82 76.00 120.60 Z M 119.70 70.00 L 119.70 158.00 L 81.70 158.00 C 57.40 158.00 37.70 138.30 37.70 114.00 C 37.70 89.70 57.40 70.00 81.70 70.00 L 119.70 70.00 Z" fill="#111111" fill-rule="nonzero" group-id="1,12" node-id="219" stroke="none" target-height="88" target-width="82" target-x="37.7" target-y="70"></path><path d="M 86.40 95.50 C 94.52 95.50 101.10 102.08 101.10 110.20 C 101.10 118.32 94.52 124.90 86.40 124.90 C 78.28 124.91 71.69 118.32 71.70 110.20 C 71.71 102.09 78.29 95.51 86.40 95.50 Z" fill="#111111" fill-rule="nonzero" group-id="1,13" node-id="224" stroke="none" target-height="29.411102" target-width="29.411072" target-x="71.68892" target-y="95.5"></path><path d="M 431.60 255.70 L 346.80 255.70 C 345.69 255.70 344.80 254.80 344.80 253.70 C 344.80 252.60 345.69 251.70 346.80 251.70 L 429.60 251.70 C 428.94 214.58 408.86 180.54 376.70 162.00 C 374.90 161.00 373.10 160.00 371.20 159.10 C 340.83 143.92 305.04 144.18 274.90 159.80 C 273.50 160.50 272.10 161.30 270.80 162.00 C 238.64 180.54 218.56 214.58 217.90 251.70 L 300.70 251.70 C 301.80 251.70 302.70 252.60 302.70 253.70 C 302.70 254.80 301.80 255.70 300.70 255.70 L 215.90 255.70 C 214.80 255.70 213.90 254.80 213.90 253.70 C 213.86 214.43 234.79 178.13 268.80 158.50 C 270.20 157.70 271.60 156.90 273.10 156.20 C 304.39 139.92 341.59 139.66 373.10 155.50 C 375.00 156.50 376.90 157.50 378.80 158.60 C 412.81 178.23 433.74 214.53 433.70 253.80 C 433.61 254.89 432.69 255.71 431.60 255.70 Z" fill="#111111" fill-rule="nonzero" group-id="1,14" node-id="229" stroke="none" target-height="116.05844" target-width="219.88753" target-x="213.8564" target-y="139.65607"></path><path d="M 415.50 255.70 C 414.40 255.70 413.50 254.80 413.50 253.70 C 413.53 221.60 396.40 191.94 368.60 175.90 C 354.95 168.01 339.46 163.87 323.70 163.90 C 291.60 163.87 261.94 181.00 245.90 208.80 C 238.01 222.45 233.87 237.94 233.90 253.70 C 233.90 254.80 233.00 255.70 231.90 255.70 C 230.80 255.70 229.90 254.80 229.90 253.70 C 229.87 237.23 234.22 221.04 242.50 206.80 C 259.26 177.80 290.20 159.93 323.70 159.90 C 340.17 159.87 356.36 164.22 370.60 172.50 C 399.60 189.26 417.47 220.20 417.50 253.70 C 417.53 254.82 416.62 255.74 415.50 255.70 Z" fill="#111111" fill-rule="nonzero" group-id="1,15" node-id="234" stroke="none" target-height="95.868286" target-width="187.66798" target-x="229.86684" target-y="159.86682"></path><path d="M 323.70 278.80 C 310.25 278.75 299.24 268.10 298.73 254.66 C 298.22 241.22 308.39 229.77 321.80 228.70 C 322.43 228.62 323.07 228.59 323.70 228.60 C 337.56 228.60 348.80 239.84 348.80 253.70 C 348.80 267.56 337.56 278.80 323.70 278.80 Z M 323.70 232.70 C 323.16 232.69 322.63 232.72 322.10 232.80 C 310.70 233.68 302.08 243.49 302.67 254.90 C 303.26 266.32 312.84 275.19 324.27 274.89 C 335.70 274.59 344.81 265.23 344.80 253.80 C 344.76 242.16 335.34 232.74 323.70 232.70 Z" fill="#111111" fill-rule="nonzero" group-id="1,16" node-id="239" stroke="none" target-height="50.21399" target-width="50.58188" target-x="298.2181" target-y="228.58597"></path><path d="M 340.00 239.40 L 339.60 239.40 C 338.53 239.20 337.82 238.17 338.00 237.10 L 346.70 192.00 C 346.70 191.92 346.66 191.85 346.60 191.80 C 346.50 191.80 346.40 191.80 346.40 191.90 L 323.60 231.80 C 323.16 232.96 321.78 233.44 320.72 232.81 C 319.65 232.18 319.40 230.75 320.20 229.80 L 343.00 189.90 C 344.14 187.88 346.72 187.21 348.70 188.40 C 350.24 189.29 351.04 191.06 350.70 192.80 L 342.00 237.90 C 341.77 238.81 340.94 239.43 340.00 239.40 Z" fill="#111111" fill-rule="nonzero" group-id="1,17" node-id="244" stroke="none" target-height="52.224503" target-width="31.636444" target-x="319.4046" target-y="187.20512"></path><path d="M 273.90 160.00 L 81.70 160.00 C 56.29 160.00 35.70 139.41 35.70 114.00 C 35.70 88.59 56.29 68.00 81.70 68.00 L 364.30 68.00 C 388.19 67.89 408.19 86.09 410.32 109.88 C 412.46 133.68 396.03 155.15 372.50 159.30 C 371.35 159.68 370.13 158.95 369.91 157.75 C 369.70 156.56 370.59 155.45 371.80 155.40 C 393.12 151.46 407.94 131.93 406.00 110.33 C 404.05 88.74 385.99 72.17 364.30 72.10 L 81.70 72.10 C 58.50 72.10 39.70 90.90 39.70 114.10 C 39.70 137.30 58.50 156.10 81.70 156.10 L 273.90 156.10 C 275.15 155.81 276.34 156.77 276.34 158.05 C 276.34 159.33 275.15 160.29 273.90 160.00 Z" fill="#111111" fill-rule="nonzero" group-id="1,18" node-id="249" stroke="none" target-height="92.39353" target-width="376.76105" target-x="35.699997" target-y="67.89179"></path><path d="M 119.70 160.00 C 118.60 160.00 117.70 159.10 117.70 158.00 L 117.70 70.00 C 117.70 68.90 118.60 68.00 119.70 68.00 C 120.80 68.00 121.70 68.90 121.70 70.00 L 121.70 158.00 C 121.70 159.10 120.80 160.00 119.70 160.00 Z" fill="#111111" fill-rule="nonzero" group-id="1,19" node-id="254" stroke="none" target-height="92" target-width="4" target-x="117.7" target-y="68"></path><path d="M 86.40 126.90 C 81.97 126.93 77.71 125.16 74.60 122.00 C 74.54 121.95 74.50 121.88 74.50 121.80 C 71.45 118.71 69.76 114.54 69.80 110.20 C 69.80 100.96 77.30 93.48 86.53 93.50 C 95.77 93.52 103.24 101.03 103.20 110.27 C 103.16 119.50 95.64 126.96 86.40 126.90 Z M 77.60 119.30 C 82.79 121.80 88.76 117.78 88.38 112.03 C 88.01 106.28 81.57 103.06 76.75 106.21 C 71.92 109.36 72.28 116.55 77.40 119.20 C 77.50 119.20 77.50 119.20 77.60 119.30 Z" fill="#ffffff" fill-rule="nonzero" group-id="1,20" node-id="259" stroke="none" target-height="33.47351" target-width="33.472946" target-x="69.7639" target-y="93.4818"></path><path d="M 63.20 135.40 C 62.67 135.39 62.17 135.18 61.80 134.80 C 61.00 134.04 61.00 132.76 61.80 132.00 L 74.60 119.20 C 74.99 118.77 75.53 118.52 76.10 118.50 C 77.20 118.50 78.10 119.40 78.10 120.50 C 78.09 121.03 77.88 121.53 77.50 121.90 L 64.60 134.80 C 64.23 135.18 63.73 135.39 63.20 135.40 Z" fill="#ffffff" fill-rule="nonzero" group-id="1,21" node-id="264" stroke="none" target-height="16.899994" target-width="17.101994" target-x="60.997997" target-y="118.499985"></path><path d="M 244.20 209.80 C 243.85 209.79 243.50 209.69 243.20 209.50 L 229.30 201.40 C 228.55 200.77 228.37 199.70 228.86 198.85 C 229.36 198.01 230.39 197.65 231.30 198.00 L 245.20 206.10 C 246.18 206.62 246.50 207.87 245.90 208.80 C 245.55 209.41 244.90 209.79 244.20 209.80 Z" fill="#111111" fill-rule="nonzero" group-id="1,22" node-id="269" stroke="none" target-height="12.148712" target-width="18.13121" target-x="228.36688" target-y="197.65129"></path><path d="M 277.80 176.20 C 277.09 176.20 276.44 175.82 276.10 175.20 L 268.10 161.30 C 267.75 160.39 268.11 159.36 268.95 158.86 C 269.80 158.37 270.87 158.55 271.50 159.30 L 279.50 173.20 C 280.07 174.14 279.75 175.36 278.80 175.90 C 278.52 176.13 278.16 176.24 277.80 176.20 Z" fill="#111111" fill-rule="nonzero" group-id="1,23" node-id="274" stroke="none" target-height="17.876007" target-width="12.320679" target-x="267.7513" target-y="158.36688"></path><path d="M 323.70 164.00 C 322.60 164.00 321.70 163.10 321.70 162.00 L 321.70 145.90 C 321.70 144.80 322.60 143.90 323.70 143.90 C 324.80 143.90 325.70 144.80 325.70 145.90 L 325.70 162.00 C 325.70 163.10 324.80 164.00 323.70 164.00 Z" fill="#111111" fill-rule="nonzero" group-id="1,24" node-id="279" stroke="none" target-height="20.100006" target-width="4" target-x="321.7" target-y="143.9"></path><path d="M 369.60 176.20 C 369.25 176.19 368.90 176.09 368.60 175.90 C 367.62 175.38 367.30 174.13 367.90 173.20 L 375.90 159.30 C 376.53 158.55 377.60 158.37 378.45 158.86 C 379.29 159.36 379.65 160.39 379.30 161.30 L 371.30 175.20 C 370.97 175.83 370.31 176.22 369.60 176.20 Z" fill="#111111" fill-rule="nonzero" group-id="1,25" node-id="284" stroke="none" target-height="17.852402" target-width="12.346771" target-x="367.3019" target-y="158.3669"></path><path d="M 403.20 209.80 C 402.32 209.78 401.55 209.18 401.32 208.32 C 401.09 207.47 401.45 206.57 402.20 206.10 L 416.10 198.00 C 417.05 197.20 418.48 197.45 419.11 198.52 C 419.74 199.58 419.26 200.96 418.10 201.40 L 404.20 209.50 C 403.92 209.73 403.56 209.84 403.20 209.80 Z" fill="#111111" fill-rule="nonzero" group-id="1,26" node-id="289" stroke="none" target-height="12.638245" target-width="18.645844" target-x="401.09106" target-y="197.20462"></path><path d="M 630.00 953.20 L 488.30 953.20 C 504.28 953.19 519.61 946.91 531.00 935.70 L 567.70 899.60 C 571.64 895.64 573.26 889.94 572.00 884.50 L 560.60 833.30 L 580.00 833.30 C 586.47 874.77 591.74 898.67 595.80 905.00 C 601.80 914.50 626.50 919.00 629.90 924.20 C 632.17 927.67 632.20 937.34 630.00 953.20 Z" fill="#111111" fill-rule="nonzero" group-id="1,27" node-id="294" stroke="none" target-height="119.900024" target-width="143.90005" target-x="488.29996" target-y="833.30005"></path><path d="M 630.00 954.30 L 488.30 954.30 C 487.69 954.30 487.20 953.81 487.20 953.20 C 487.20 952.59 487.69 952.10 488.30 952.10 C 504.00 952.07 519.05 945.85 530.20 934.80 L 566.90 898.70 C 570.55 895.03 572.10 889.76 571.00 884.70 L 559.60 833.50 C 559.56 833.19 559.63 832.87 559.80 832.60 C 560.02 832.33 560.35 832.18 560.70 832.20 L 580.10 832.20 C 580.50 832.20 581.20 832.60 581.20 833.10 C 581.20 833.60 590.90 895.10 596.70 904.30 C 600.20 909.50 609.70 913.40 617.60 916.40 C 624.10 919.00 629.30 920.90 630.80 923.50 C 634.50 928.90 631.20 950.50 631.00 953.10 C 631.00 953.90 630.60 954.30 630.00 954.30 Z M 504.70 952.20 L 629.10 952.20 C 630.20 945.10 631.70 928.90 629.10 925.00 C 627.80 923.10 622.60 920.90 617.00 918.70 C 608.60 915.50 598.90 911.60 595.20 905.70 C 589.40 896.60 580.70 842.40 579.40 834.50 L 562.10 834.50 L 573.10 884.40 C 574.45 890.19 572.67 896.26 568.40 900.40 L 531.70 936.50 C 524.19 943.95 514.89 949.36 504.70 952.20 Z" fill="#111111" fill-rule="nonzero" group-id="1,28" node-id="299" stroke="none" target-height="122.115845" target-width="147.29996" target-x="487.20004" target-y="832.184"></path><path d="M 567.80 899.70 L 531.10 935.80 C 519.70 946.99 504.37 953.28 488.40 953.30 L 356.80 953.30 C 354.07 953.34 351.89 951.03 352.10 948.30 C 352.16 946.51 353.14 944.88 354.70 944.00 C 376.50 933.20 407.60 914.00 410.00 893.50 C 412.33 872.37 406.50 852.44 392.50 833.70 L 560.70 833.70 L 572.10 884.90 C 573.32 890.24 571.69 895.84 567.80 899.70 Z" fill="#ffffff" fill-rule="nonzero" group-id="1,29" node-id="304" stroke="none" target-height="119.64398" target-width="221.43408" target-x="351.88757" target-y="833.7"></path><path d="M 488.50 954.30 L 357.10 954.30 C 353.82 954.22 351.18 951.58 351.10 948.30 C 351.15 946.06 352.36 944.02 354.30 942.90 C 373.70 933.20 406.80 913.80 408.90 893.20 C 412.40 862.10 391.80 834.50 391.60 834.00 C 391.45 833.65 391.38 833.28 391.40 832.90 C 391.57 832.55 391.91 832.32 392.30 832.30 L 560.50 832.30 C 561.00 832.38 561.42 832.72 561.60 833.20 L 573.00 884.40 C 574.35 890.19 572.57 896.26 568.30 900.40 L 531.60 936.50 C 520.15 947.89 504.65 954.29 488.50 954.30 Z M 394.60 834.50 C 399.10 841.20 414.00 866.00 411.00 893.40 C 408.80 913.90 379.50 932.70 355.10 944.80 C 353.20 945.77 352.44 948.09 353.40 950.00 C 354.03 951.36 355.40 952.22 356.90 952.20 L 488.40 952.20 C 504.10 952.17 519.15 945.95 530.30 934.90 L 567.00 898.80 C 570.65 895.13 572.20 889.86 571.10 884.80 L 559.90 834.50 L 394.60 834.50 Z" fill="#111111" fill-rule="nonzero" group-id="1,30" node-id="309" stroke="none" target-height="122" target-width="223.24896" target-x="351.10004" target-y="832.3"></path><path d="M 144.20 321.10 L 882.80 321.10 C 890.34 321.04 896.46 327.16 896.40 334.70 L 896.40 820.00 C 896.46 827.54 890.34 833.66 882.80 833.60 L 144.20 833.60 C 136.66 833.66 130.54 827.54 130.60 820.00 L 130.60 334.50 C 130.63 327.03 136.73 321.02 144.20 321.10 Z" fill="#ffffff" fill-rule="nonzero" group-id="1,31" node-id="314" stroke="none" target-height="512.64453" target-width="765.9232" target-x="130.53833" target-y="321.01666"></path><path d="M 882.80 834.50 L 144.20 834.50 C 136.09 834.49 129.51 827.91 129.50 819.80 L 129.50 334.50 C 129.51 326.39 136.09 319.81 144.20 319.80 L 882.80 319.80 C 890.91 319.81 897.49 326.39 897.50 334.50 L 897.50 819.80 C 897.38 827.87 890.87 834.38 882.80 834.50 Z M 144.20 322.20 C 137.30 322.20 131.70 327.80 131.70 334.70 L 131.70 820.00 C 131.70 826.90 137.30 832.50 144.20 832.50 L 882.80 832.50 C 889.70 832.50 895.30 826.90 895.30 820.00 L 895.30 334.50 C 895.30 327.60 889.70 322.00 882.80 322.00 L 144.20 322.00 L 144.20 322.20 Z" fill="#111111" fill-rule="nonzero" group-id="1,32" node-id="319" stroke="none" target-height="514.7001" target-width="768.00006" target-x="129.5" target-y="319.8"></path><path d="M 168.20 353.70 L 858.90 353.70 L 858.90 800.60 L 168.20 800.60 Z" fill="#3541df" fill-rule="nonzero" group-id="1,33" node-id="324" stroke="none" target-height="446.89996" target-width="690.69995" target-x="168.2" target-y="353.7"></path><path d="M 858.60 801.70 L 168.20 801.70 C 167.57 801.77 167.03 801.23 167.10 800.60 L 167.10 353.70 C 167.03 353.07 167.57 352.53 168.20 352.60 L 858.90 352.60 C 859.53 352.53 860.07 353.07 860.00 353.70 L 860.00 800.60 C 859.77 801.20 859.23 801.62 858.60 801.70 Z M 169.20 799.50 L 857.70 799.50 L 857.70 354.80 L 169.20 354.80 L 169.20 799.50 Z" fill="#111111" fill-rule="nonzero" group-id="1,34" node-id="329" stroke="none" target-height="449.2345" target-width="693.03455" target-x="167.03275" target-y="352.53278"></path><path d="M 272.00 710.10 L 272.00 735.00 L 38.60 735.00 L 38.60 710.20 C 38.67 706.03 42.03 702.67 46.20 702.60 L 264.50 702.60 C 268.69 702.49 272.11 705.91 272.00 710.10 Z" fill="#3541df" fill-rule="nonzero" group-id="1,35" node-id="334" stroke="none" target-height="32.510254" target-width="233.50998" target-x="38.6" target-y="702.48975"></path><path d="M 272.00 736.00 L 38.60 736.00 C 37.97 736.07 37.43 735.53 37.50 734.90 L 37.50 710.10 C 37.53 705.36 41.36 701.53 46.10 701.50 L 264.40 701.50 C 269.14 701.53 272.97 705.36 273.00 710.10 L 273.00 735.00 C 273.10 735.40 272.60 736.00 272.00 736.00 Z M 39.70 733.90 L 270.90 733.90 L 270.90 710.20 C 270.98 706.58 268.02 703.62 264.40 703.70 L 46.20 703.70 C 42.58 703.62 39.62 706.58 39.70 710.20 L 39.70 733.90 Z" fill="#111111" fill-rule="nonzero" group-id="1,36" node-id="339" stroke="none" target-height="34.567383" target-width="235.66753" target-x="37.432755" target-y="701.49994"></path><path d="M 272.00 735.00 L 272.00 891.30 C 271.93 895.47 268.57 898.83 264.40 898.90 L 46.20 898.90 C 42.03 898.83 38.67 895.47 38.60 891.30 L 38.60 735.00 L 272.00 735.00 Z" fill="#ffffff" fill-rule="nonzero" group-id="1,37" node-id="344" stroke="none" target-height="163.90002" target-width="233.4" target-x="38.600002" target-y="735"></path><path d="M 264.40 899.90 L 46.20 899.90 C 41.46 899.87 37.63 896.04 37.60 891.30 L 37.60 735.00 C 37.53 734.37 38.07 733.83 38.70 733.90 L 272.00 733.90 C 272.63 733.83 273.17 734.37 273.10 735.00 L 273.10 891.30 C 273.05 896.07 269.17 899.91 264.40 899.90 Z M 39.70 736.00 L 39.70 891.40 C 39.62 895.02 42.58 897.98 46.20 897.90 L 264.50 897.90 C 268.12 897.98 271.08 895.02 271.00 891.40 L 271.00 736.00 L 39.70 736.00 Z" fill="#111111" fill-rule="nonzero" group-id="1,38" node-id="349" stroke="none" target-height="166.07355" target-width="235.6345" target-x="37.532757" target-y="733.8327"></path><path d="M 63.60 719.90 C 63.60 722.39 61.59 724.40 59.10 724.40 C 56.61 724.40 54.60 722.39 54.60 719.90 C 54.60 717.41 56.61 715.40 59.10 715.40 C 61.59 715.40 63.60 717.41 63.60 719.90 Z" fill="#ffffff" fill-rule="nonzero" group-id="1,39" node-id="354" stroke="none" target-height="9.000061" target-width="9" target-x="54.6" target-y="715.39996"></path><path d="M 59.10 725.50 C 56.01 725.50 53.50 722.99 53.50 719.90 C 53.50 716.81 56.01 714.30 59.10 714.30 C 62.19 714.30 64.70 716.81 64.70 719.90 C 64.64 722.97 62.17 725.44 59.10 725.50 Z M 59.10 716.40 C 57.16 716.39 55.59 717.96 55.60 719.90 C 55.55 721.85 57.15 723.45 59.10 723.40 C 61.04 723.41 62.61 721.84 62.60 719.90 C 62.65 717.95 61.05 716.35 59.10 716.40 Z" fill="#111111" fill-rule="nonzero" group-id="1,40" node-id="359" stroke="none" target-height="11.200012" target-width="11.199997" target-x="53.5" target-y="714.3"></path><path d="M 81.80 719.90 C 81.80 722.39 79.79 724.40 77.30 724.40 C 74.81 724.40 72.80 722.39 72.80 719.90 C 72.80 717.41 74.81 715.40 77.30 715.40 C 79.79 715.40 81.80 717.41 81.80 719.90 Z" fill="#ffffff" fill-rule="nonzero" group-id="1,41" node-id="364" stroke="none" target-height="9.000061" target-width="9" target-x="72.8" target-y="715.39996"></path><path d="M 77.30 725.50 C 74.21 725.50 71.70 722.99 71.70 719.90 C 71.70 716.81 74.21 714.30 77.30 714.30 C 80.39 714.30 82.90 716.81 82.90 719.90 C 82.84 722.97 80.37 725.44 77.30 725.50 Z M 77.30 716.40 C 75.36 716.39 73.79 717.96 73.80 719.90 C 73.75 721.85 75.35 723.45 77.30 723.40 C 79.24 723.41 80.81 721.84 80.80 719.90 C 80.78 717.98 79.22 716.42 77.30 716.40 Z" fill="#111111" fill-rule="nonzero" group-id="1,42" node-id="369" stroke="none" target-height="11.200012" target-width="11.199997" target-x="71.7" target-y="714.3"></path><path d="M 99.70 719.90 C 99.70 722.39 97.69 724.40 95.20 724.40 C 92.71 724.40 90.70 722.39 90.70 719.90 C 90.70 717.41 92.71 715.40 95.20 715.40 C 97.69 715.40 99.70 717.41 99.70 719.90 Z" fill="#ffffff" fill-rule="nonzero" group-id="1,43" node-id="374" stroke="none" target-height="9.000061" target-width="8.999992" target-x="90.700005" target-y="715.39996"></path><path d="M 95.20 725.50 C 92.11 725.50 89.60 722.99 89.60 719.90 C 89.60 716.81 92.11 714.30 95.20 714.30 C 98.29 714.30 100.80 716.81 100.80 719.90 C 100.88 723.02 98.32 725.58 95.20 725.50 Z M 95.20 716.40 C 93.26 716.39 91.69 717.96 91.70 719.90 C 91.65 721.85 93.25 723.45 95.20 723.40 C 97.14 723.41 98.71 721.84 98.70 719.90 C 98.78 717.93 97.17 716.32 95.20 716.40 Z" fill="#111111" fill-rule="nonzero" group-id="1,44" node-id="379" stroke="none" target-height="11.2751465" target-width="11.275101" target-x="89.6" target-y="714.3"></path><path d="M 104.20 769.30 L 63.00 769.30 C 62.37 769.37 61.83 768.83 61.90 768.20 C 61.83 767.57 62.37 767.03 63.00 767.10 L 104.50 767.10 C 105.13 767.03 105.67 767.57 105.60 768.20 C 105.52 768.89 104.89 769.38 104.20 769.30 Z" fill="#111111" fill-rule="nonzero" group-id="1,45" node-id="384" stroke="none" target-height="2.3494873" target-width="43.83451" target-x="61.832756" target-y="767.0328"></path><path d="M 155.40 793.70 L 63.00 793.70 C 62.39 793.70 61.90 793.21 61.90 792.60 C 61.90 791.99 62.39 791.50 63.00 791.50 L 155.40 791.50 C 156.03 791.43 156.57 791.97 156.50 792.60 C 156.47 793.19 155.99 793.67 155.40 793.70 Z" fill="#111111" fill-rule="nonzero" group-id="1,46" node-id="389" stroke="none" target-height="2.267273" target-width="94.6673" target-x="61.899998" target-y="791.43274"></path><path d="M 155.40 817.90 L 63.00 817.90 C 62.37 817.97 61.83 817.43 61.90 816.80 C 61.83 816.17 62.37 815.63 63.00 815.70 L 155.40 815.70 C 156.03 815.63 156.57 816.17 156.50 816.80 C 156.47 817.39 155.99 817.87 155.40 817.90 Z" fill="#111111" fill-rule="nonzero" group-id="1,47" node-id="394" stroke="none" target-height="2.3344727" target-width="94.734505" target-x="61.832756" target-y="815.6328"></path><path d="M 155.40 842.30 L 63.00 842.30 C 62.39 842.30 61.90 841.81 61.90 841.20 C 61.90 840.59 62.39 840.10 63.00 840.10 L 155.40 840.10 C 156.03 840.03 156.57 840.57 156.50 841.20 C 156.43 841.77 155.97 842.23 155.40 842.30 Z" fill="#111111" fill-rule="nonzero" group-id="1,48" node-id="399" stroke="none" target-height="2.267212" target-width="94.6673" target-x="61.899998" target-y="840.0328"></path><path d="M 155.40 866.70 L 63.00 866.70 C 62.39 866.70 61.90 866.21 61.90 865.60 C 61.90 864.99 62.39 864.50 63.00 864.50 L 155.40 864.50 C 156.03 864.43 156.57 864.97 156.50 865.60 C 156.43 866.17 155.97 866.63 155.40 866.70 Z" fill="#111111" fill-rule="nonzero" group-id="1,49" node-id="404" stroke="none" target-height="2.267334" target-width="94.6673" target-x="61.899998" target-y="864.4327"></path><path d="M 187.60 769.30 L 120.70 769.30 C 120.07 769.37 119.53 768.83 119.60 768.20 C 119.53 767.57 120.07 767.03 120.70 767.10 L 187.60 767.10 C 188.21 767.10 188.70 767.59 188.70 768.20 C 188.70 768.81 188.21 769.30 187.60 769.30 Z" fill="#3541df" fill-rule="nonzero" group-id="1,50" node-id="409" stroke="none" target-height="2.3344727" target-width="69.16724" target-x="119.532745" target-y="767.0328"></path><path d="M 213.10 793.70 L 166.90 793.70 C 166.29 793.70 165.80 793.21 165.80 792.60 C 165.80 791.99 166.29 791.50 166.90 791.50 L 213.10 791.50 C 213.73 791.43 214.27 791.97 214.20 792.60 C 214.13 793.18 213.68 793.63 213.10 793.70 Z" fill="#111111" fill-rule="nonzero" group-id="1,51" node-id="414" stroke="none" target-height="2.267273" target-width="48.4673" target-x="165.79999" target-y="791.43274"></path><path d="M 213.10 817.90 L 166.90 817.90 C 166.27 817.97 165.73 817.43 165.80 816.80 C 165.73 816.17 166.27 815.63 166.90 815.70 L 213.10 815.70 C 213.73 815.63 214.27 816.17 214.20 816.80 C 214.17 817.39 213.69 817.87 213.10 817.90 Z" fill="#111111" fill-rule="nonzero" group-id="1,52" node-id="419" stroke="none" target-height="2.3344727" target-width="48.5345" target-x="165.73274" target-y="815.6328"></path><path d="M 213.10 842.30 L 166.90 842.30 C 166.29 842.30 165.80 841.81 165.80 841.20 C 165.80 840.59 166.29 840.10 166.90 840.10 L 213.10 840.10 C 213.73 840.03 214.27 840.57 214.20 841.20 C 214.09 841.76 213.66 842.19 213.10 842.30 Z" fill="#111111" fill-rule="nonzero" group-id="1,53" node-id="424" stroke="none" target-height="2.267212" target-width="48.4673" target-x="165.79999" target-y="840.0328"></path><path d="M 213.10 866.70 L 166.90 866.70 C 166.29 866.70 165.80 866.21 165.80 865.60 C 165.80 864.99 166.29 864.50 166.90 864.50 L 213.10 864.50 C 213.73 864.43 214.27 864.97 214.20 865.60 C 214.09 866.16 213.66 866.59 213.10 866.70 Z" fill="#111111" fill-rule="nonzero" group-id="1,54" node-id="429" stroke="none" target-height="2.267334" target-width="48.4673" target-x="165.79999" target-y="864.4327"></path><path d="M 273.50 562.90 L 323.20 535.00 L 323.20 548.40 L 285.40 568.90 L 323.20 589.60 L 323.20 603.20 L 273.50 575.30 L 273.50 562.90 Z" fill="#ffffff" fill-rule="nonzero" group-id="1,55" node-id="434" stroke="none" target-height="68.20001" target-width="49.700012" target-x="273.5" target-y="535"></path><path d="M 359.90 497.00 L 375.20 497.00 L 375.20 543.40 L 396.40 543.40 L 396.40 497.00 L 411.70 497.00 L 411.70 611.90 L 396.40 611.90 L 396.40 557.50 L 375.20 557.50 L 375.20 611.90 L 359.90 611.90 L 359.90 497.00 Z" fill="#ffffff" fill-rule="nonzero" group-id="1,56" node-id="439" stroke="none" target-height="114.900024" target-width="51.799988" target-x="359.90002" target-y="497"></path><path d="M 459.40 511.30 L 440.80 511.30 L 440.80 497.00 L 493.30 497.00 L 493.30 511.20 L 474.70 511.20 L 474.70 611.80 L 459.40 611.80 L 459.40 511.30 Z" fill="#ffffff" fill-rule="nonzero" group-id="1,57" node-id="444" stroke="none" target-height="114.79999" target-width="52.50003" target-x="440.79996" target-y="497"></path><path d="M 579.40 567.00 C 579.40 546.70 579.60 523.20 580.00 510.40 L 579.80 510.40 C 577.00 530.00 569.70 578.40 564.30 612.10 L 549.60 612.10 C 545.50 582.30 537.90 531.10 535.40 510.40 L 535.00 510.40 C 535.40 523.80 535.90 549.70 535.90 569.60 L 535.90 612.10 L 521.90 612.10 L 521.90 497.30 L 544.80 497.30 C 550.00 528.60 555.80 565.30 557.50 580.60 L 557.70 580.60 C 559.60 565.10 566.80 526.60 572.20 497.30 L 594.40 497.30 L 594.40 612.20 L 579.70 612.20 L 579.40 567.00 Z" fill="#ffffff" fill-rule="nonzero" group-id="1,58" node-id="449" stroke="none" target-height="114.900024" target-width="72.50006" target-x="521.9" target-y="497.3"></path><path d="M 631.00 497.00 L 646.30 497.00 L 646.30 598.30 L 675.20 598.30 L 673.70 612.10 L 630.70 612.10 L 630.70 497.00 L 631.00 497.00 Z" fill="#ffffff" fill-rule="nonzero" group-id="1,59" node-id="454" stroke="none" target-height="115.10004" target-width="44.5" target-x="630.7" target-y="497"></path><path d="M 753.20 575.20 L 703.50 603.10 L 703.50 589.70 L 741.30 569.20 L 703.50 548.50 L 703.50 534.90 L 753.20 562.80 L 753.20 575.20 Z" fill="#ffffff" fill-rule="nonzero" group-id="1,60" node-id="459" stroke="none" target-height="68.20001" target-width="49.700073" target-x="703.49994" target-y="534.9"></path><path d="M 273.50 562.90 L 323.20 535.00 L 323.20 548.40 L 285.40 568.90 L 323.20 589.60 L 323.20 603.20 L 273.50 575.30 L 273.50 562.90 Z" fill="#ffffff" fill-rule="nonzero" group-id="1,61" node-id="464" stroke="none" target-height="68.20001" target-width="49.700012" target-x="273.5" target-y="535"></path><path d="M 359.90 497.00 L 375.20 497.00 L 375.20 543.40 L 396.40 543.40 L 396.40 497.00 L 411.70 497.00 L 411.70 611.90 L 396.40 611.90 L 396.40 557.50 L 375.20 557.50 L 375.20 611.90 L 359.90 611.90 L 359.90 497.00 Z" fill="#ffffff" fill-rule="nonzero" group-id="1,62" node-id="469" stroke="none" target-height="114.900024" target-width="51.799988" target-x="359.90002" target-y="497"></path><path d="M 459.40 511.30 L 440.80 511.30 L 440.80 497.00 L 493.30 497.00 L 493.30 511.20 L 474.70 511.20 L 474.70 611.80 L 459.40 611.80 L 459.40 511.30 Z" fill="#ffffff" fill-rule="nonzero" group-id="1,63" node-id="474" stroke="none" target-height="114.79999" target-width="52.50003" target-x="440.79996" target-y="497"></path><path d="M 579.40 567.00 C 579.40 546.70 579.60 523.20 580.00 510.40 L 579.80 510.40 C 577.00 530.00 569.70 578.40 564.30 612.10 L 549.60 612.10 C 545.50 582.30 537.90 531.10 535.40 510.40 L 535.00 510.40 C 535.40 523.80 535.90 549.70 535.90 569.60 L 535.90 612.10 L 521.90 612.10 L 521.90 497.30 L 544.80 497.30 C 550.00 528.60 555.80 565.30 557.50 580.60 L 557.70 580.60 C 559.60 565.10 566.80 526.60 572.20 497.30 L 594.40 497.30 L 594.40 612.20 L 579.70 612.20 L 579.40 567.00 Z" fill="#ffffff" fill-rule="nonzero" group-id="1,64" node-id="479" stroke="none" target-height="114.900024" target-width="72.50006" target-x="521.9" target-y="497.3"></path><path d="M 631.00 497.00 L 646.30 497.00 L 646.30 598.30 L 675.20 598.30 L 673.70 612.10 L 630.70 612.10 L 630.70 497.00 L 631.00 497.00 Z" fill="#ffffff" fill-rule="nonzero" group-id="1,65" node-id="484" stroke="none" target-height="115.10004" target-width="44.5" target-x="630.7" target-y="497"></path><path d="M 753.20 575.20 L 703.50 603.10 L 703.50 589.70 L 741.30 569.20 L 703.50 548.50 L 703.50 534.90 L 753.20 562.80 L 753.20 575.20 Z" fill="#ffffff" fill-rule="nonzero" group-id="1,66" node-id="489" stroke="none" target-height="68.20001" target-width="49.700073" target-x="703.49994" target-y="534.9"></path><path d="M 732.10 235.20 L 992.30 235.20 C 996.00 235.20 999.00 238.20 999.00 241.90 L 999.00 416.60 C 999.00 420.30 996.00 423.30 992.30 423.30 L 732.10 423.30 C 728.40 423.30 725.40 420.30 725.40 416.60 L 725.40 241.90 C 725.40 238.20 728.40 235.20 732.10 235.20 Z" fill="#ffffff" fill-rule="nonzero" group-id="1,67" node-id="494" stroke="none" target-height="188.1" target-width="273.5999" target-x="725.39996" target-y="235.19998"></path><path d="M 992.20 424.10 L 732.10 424.10 C 727.79 424.09 724.31 420.61 724.30 416.30 L 724.30 241.90 C 724.31 237.59 727.79 234.11 732.10 234.10 L 992.30 234.10 C 996.61 234.11 1000.09 237.59 1000.10 241.90 L 1000.10 416.60 C 999.88 420.80 996.41 424.10 992.20 424.10 Z M 732.10 236.20 C 729.03 236.26 726.56 238.73 726.50 241.80 L 726.50 416.50 C 726.56 419.57 729.03 422.04 732.10 422.10 L 992.30 422.10 C 995.37 422.04 997.84 419.57 997.90 416.50 L 997.90 241.90 C 997.84 238.83 995.37 236.36 992.30 236.30 L 732.10 236.30 L 732.10 236.20 Z" fill="#111111" fill-rule="nonzero" group-id="1,68" node-id="499" stroke="none" target-height="190" target-width="275.79993" target-x="724.30005" target-y="234.09998"></path><path d="M 998.90 276.80 L 725.40 276.80 C 724.79 276.80 724.30 276.31 724.30 275.70 C 724.30 275.09 724.79 274.60 725.40 274.60 L 998.90 274.60 C 999.53 274.53 1000.07 275.07 1000.00 275.70 C 1000.00 276.31 999.50 276.79 998.90 276.80 Z" fill="#111111" fill-rule="nonzero" group-id="1,69" node-id="504" stroke="none" target-height="2.267273" target-width="275.76697" target-x="724.30005" target-y="274.5327"></path><path d="M 779.80 341.60 L 831.00 312.90 L 831.00 326.70 L 792.10 347.90 L 831.00 369.30 L 831.00 383.30 L 779.80 354.60 L 779.80 341.60 Z" fill="#3541df" fill-rule="nonzero" group-id="1,70" node-id="509" stroke="none" target-height="70.399994" target-width="51.200012" target-x="779.8" target-y="312.9"></path><path d="M 831.00 384.30 C 830.80 384.30 830.60 384.30 830.60 384.10 L 779.40 355.40 C 779.05 355.23 778.82 354.89 778.80 354.50 L 778.80 341.50 C 778.80 341.10 779.00 340.90 779.40 340.60 L 830.60 311.90 C 830.94 311.70 831.36 311.70 831.70 311.90 C 832.20 312.10 832.30 312.50 832.10 312.80 L 832.10 326.60 C 832.10 327.00 831.90 327.50 831.50 327.50 L 794.40 347.60 L 831.50 367.90 C 831.85 368.07 832.08 368.41 832.10 368.80 L 832.10 382.80 C 832.07 383.14 831.93 383.45 831.70 383.70 C 831.40 384.10 831.20 384.30 831.00 384.30 Z M 780.90 353.90 L 829.90 381.30 L 829.90 369.90 L 791.50 348.70 C 791.15 348.53 790.92 348.19 790.90 347.80 C 790.90 347.40 791.10 346.90 791.50 346.90 L 829.90 326.20 L 829.90 314.80 L 780.90 342.20 L 780.90 353.90 Z" fill="#111111" fill-rule="nonzero" group-id="1,71" node-id="514" stroke="none" target-height="72.60068" target-width="53.499817" target-x="778.8" target-y="311.69928"></path><path d="M 846.10 302.30 L 858.40 302.30 L 878.00 393.80 L 865.70 393.80 L 846.10 302.30 Z" fill="#3541df" fill-rule="nonzero" group-id="1,72" node-id="519" stroke="none" target-height="91.50003" target-width="31.899963" target-x="846.1" target-y="302.3"></path><path d="M 878.00 394.90 L 865.70 394.90 C 865.20 394.82 864.78 394.48 864.60 394.00 L 845.00 302.50 C 844.98 302.19 845.05 301.87 845.20 301.60 C 845.42 301.33 845.75 301.18 846.10 301.20 L 858.40 301.20 C 858.90 301.28 859.32 301.62 859.50 302.10 L 879.10 393.60 C 879.12 393.91 879.05 394.23 878.90 394.50 C 878.68 394.77 878.35 394.92 878.00 394.90 Z M 866.60 392.80 L 876.70 392.80 L 857.50 303.40 L 847.60 303.40 L 866.60 392.80 Z" fill="#111111" fill-rule="nonzero" group-id="1,73" node-id="524" stroke="none" target-height="93.73181" target-width="34.14142" target-x="844.9792" target-y="301.18408"></path><path d="M 944.30 354.30 L 893.10 383.00 L 893.10 369.20 L 932.00 348.00 L 893.10 326.60 L 893.10 312.60 L 944.30 341.30 L 944.30 354.30 Z" fill="#3541df" fill-rule="nonzero" group-id="1,74" node-id="529" stroke="none" target-height="70.399994" target-width="51.19995" target-x="893.1" target-y="312.6"></path><path d="M 893.10 384.10 C 892.90 384.10 892.70 384.10 892.70 383.90 C 892.39 383.71 892.23 383.35 892.30 383.00 L 892.30 369.20 C 892.30 368.80 892.50 368.30 892.90 368.30 L 930.00 348.20 L 892.90 328.00 C 892.55 327.83 892.32 327.49 892.30 327.10 L 892.30 313.10 C 892.33 312.76 892.47 312.45 892.70 312.20 C 893.04 312.00 893.46 312.00 893.80 312.20 L 945.00 340.90 C 945.35 341.07 945.58 341.41 945.60 341.80 L 945.60 354.80 C 945.60 355.20 945.40 355.40 945.00 355.70 L 893.80 384.40 C 893.60 383.90 893.30 384.10 893.10 384.10 Z M 894.20 369.90 L 894.20 381.30 L 943.20 353.90 L 943.20 342.20 L 894.20 314.80 L 894.20 326.20 L 932.60 347.40 C 932.95 347.57 933.18 347.91 933.20 348.30 C 933.20 348.70 933.00 349.20 932.60 349.20 L 894.20 369.90 Z" fill="#111111" fill-rule="nonzero" group-id="1,75" node-id="534" stroke="none" target-height="72.400635" target-width="53.3656" target-x="892.2343" target-y="311.99933"></path></g></g></svg>